<svg width="14" height="13" viewBox="0 0 14 13" fill="none" xmlns="http://www.w3.org/2000/svg">
<path d="M8.58145 5.28311C8.58645 5.3672 8.58645 5.45624 8.56645 5.54034C8.56645 5.54528 8.56146 5.55023 8.56146 5.55023C8.52647 5.69863 8.45149 5.83714 8.33652 5.95586C8.00161 6.28729 7.45675 6.28729 7.12184 5.95586C6.77693 5.61454 6.29206 5.48592 5.84219 5.57002C5.74721 5.5898 5.65723 5.61454 5.56726 5.64916C5.3973 5.71842 5.23735 5.8223 5.09738 5.95586L3.75774 7.28653L2.13318 8.89422C1.57833 9.4433 1.57833 10.3436 2.13318 10.8927C2.67303 11.4269 3.61278 11.4269 4.15264 10.8927L5.38731 9.67085C5.90717 10.0221 6.49201 10.2595 7.11184 10.3634L5.36731 12.0898C4.75248 12.6982 3.94769 13 3.14291 13C2.33812 13 1.53334 12.6982 0.918504 12.0898C-0.306168 10.8779 -0.306168 8.89916 0.918504 7.68721L3.88271 4.75381C4.49755 4.14536 5.30233 3.84361 6.10711 3.84361C6.9119 3.84361 7.71668 4.14536 8.33152 4.75381C8.3965 4.81811 8.44649 4.89231 8.48648 4.97146C8.49148 4.98135 8.50147 4.99619 8.50647 5.00609C8.54146 5.08524 8.56146 5.16438 8.57145 5.24353C8.58145 5.25837 8.58145 5.27321 8.58145 5.28311ZM13.0802 0.910198C12.4854 0.321537 11.6956 0 10.8558 0C10.0161 0 9.22628 0.321537 8.63144 0.910198L6.88191 2.64155C7.49174 2.74543 8.08158 2.97793 8.60644 3.33409L9.84111 2.11225C10.381 1.57801 11.3207 1.57801 11.8606 2.11225C12.1305 2.37938 12.2805 2.73554 12.2805 3.11149C12.2805 3.48744 12.1305 3.84361 11.8606 4.11073L11.3157 4.64992L8.90137 7.04414C8.36151 7.57839 7.42176 7.57839 6.88191 7.04414C6.547 6.71271 6.00214 6.71271 5.66723 7.04414C5.33232 7.37557 5.33232 7.91476 5.66723 8.24619C6.26207 8.83486 7.05186 9.15639 7.89164 9.15639C8.73141 9.15639 9.5212 8.83486 10.116 8.24619L12.5354 5.85198L13.0802 5.31279C13.6751 4.72413 14 3.94254 14 3.11149C14 2.28044 13.6751 1.49886 13.0802 0.910198Z" fill="#BDF2D5"/>
</svg>
