<svg width="36" height="22" viewBox="0 0 36 22" fill="none" xmlns="http://www.w3.org/2000/svg">
<path d="M34.0583 2.46193L34.0583 2.46195L34.0652 2.45798C34.2986 2.3235 34.4703 2.28001 34.5742 2.2712C34.6713 2.26296 34.7072 2.28371 34.714 2.28772C34.7212 2.29197 34.7603 2.31562 34.8043 2.41168C34.851 2.51358 34.9 2.69345 34.9 2.97394V19.0977C34.9 19.3661 34.8521 19.5368 34.8075 19.6322C34.7657 19.7218 34.7288 19.744 34.7211 19.7485C34.7132 19.753 34.6753 19.774 34.5763 19.7654C34.4708 19.7562 34.2984 19.7122 34.0652 19.5779L34.0639 19.5771L26.8279 15.4207L25.18 14.4742V16.3746V17.7003C25.18 19.4527 23.7334 20.9 21.96 20.9H4.32C2.54662 20.9 1.1 19.4527 1.1 17.7003V4.29967C1.1 2.54725 2.54662 1.1 4.32 1.1H21.924C23.6974 1.1 25.144 2.54725 25.144 4.29967V5.62541V7.51301L26.7863 6.58245L34.0583 2.46193Z" stroke="#bdf2d5" stroke-width="2.2"/>
</svg>
