<svg width="37" height="29" viewBox="0 0 37 29" fill="none" xmlns="http://www.w3.org/2000/svg">
<g clip-path="url(#clip0)">
<path d="M27.2058 15.6154C27.0317 15.6154 26.8576 15.5708 26.727 15.4816L18.0211 11.02C17.4988 10.7523 17.2811 10.0831 17.5423 9.50309C17.8035 8.92309 18.4564 8.74463 19.0223 9.01232L27.7282 13.4739C28.2505 13.7416 28.4682 14.4108 28.207 14.9908C27.9894 15.3923 27.5976 15.6154 27.2058 15.6154Z" fill="#bdf2d5"/>
<path d="M9.79429 15.6154C9.18488 15.6154 8.70605 15.1246 8.70605 14.5C8.70605 14.0985 8.9237 13.6969 9.31547 13.5185L18.0213 9.05694C18.5437 8.78925 19.1966 9.01233 19.5013 9.54771C19.8061 10.0831 19.5449 10.7523 19.0225 11.0646L10.3166 15.5262C10.1425 15.5708 9.96841 15.6154 9.79429 15.6154Z" fill="#bdf2d5"/>
<path d="M27.2054 24.5385C26.596 24.5385 26.1172 24.0477 26.1172 23.4231V14.5C26.1172 13.8754 26.596 13.3846 27.2054 13.3846C27.8148 13.3846 28.2937 13.8754 28.2937 14.5V23.4231C28.2937 24.0477 27.8148 24.5385 27.2054 24.5385Z" fill="#bdf2d5"/>
<path d="M18.5003 29C17.8909 29 17.4121 28.5092 17.4121 27.8846C17.4121 27.4831 17.6298 27.0815 18.0215 26.9031L26.7274 22.4415C27.2498 22.1738 27.9027 22.3969 28.2074 22.9323C28.5121 23.4677 28.2509 24.1369 27.7286 24.4492L19.0227 28.9108C18.8486 28.9554 18.6745 29 18.5003 29Z" fill="#bdf2d5"/>
<path d="M18.4998 29C18.3257 29 18.1516 28.9554 18.021 28.8662L9.31508 24.4046C8.79273 24.1369 8.57508 23.4677 8.83626 22.8877C9.09743 22.3077 9.75037 22.1292 10.3163 22.3969L19.0221 26.8585C19.5445 27.1262 19.7621 27.7954 19.501 28.3754C19.2833 28.7769 18.8916 29 18.4998 29Z" fill="#bdf2d5"/>
<path d="M9.79429 24.5385C9.18488 24.5385 8.70605 24.0477 8.70605 23.4231V14.5C8.70605 13.8754 9.18488 13.3846 9.79429 13.3846C10.4037 13.3846 10.8825 13.8754 10.8825 14.5V23.4231C10.8825 24.0477 10.4037 24.5385 9.79429 24.5385Z" fill="#bdf2d5"/>
<path d="M18.5003 11.1538C17.8909 11.1538 17.4121 10.6631 17.4121 10.0385V1.11538C17.4121 0.490769 17.8909 0 18.5003 0C19.1098 0 19.5886 0.490769 19.5886 1.11538V10.0385C19.5886 10.6631 19.1098 11.1538 18.5003 11.1538Z" fill="#bdf2d5"/>
<path d="M35.9119 29C35.7378 29 35.5637 28.9554 35.4331 28.8662L26.7272 24.4046C26.2048 24.1369 25.9872 23.4677 26.2484 22.8877C26.5095 22.3077 27.1625 22.1292 27.7284 22.3969L36.4342 26.8585C36.9566 27.1262 37.1743 27.7954 36.9131 28.3754C36.6954 28.7769 36.3037 29 35.9119 29Z" fill="#bdf2d5"/>
<path d="M1.08824 29C0.478824 29 0 28.5092 0 27.8846C0 27.4831 0.217647 27.0815 0.609412 26.9031L9.31529 22.4415C9.83765 22.1738 10.4906 22.3969 10.7953 22.9323C11.0565 23.4677 10.8388 24.1369 10.3165 24.4492L1.61059 28.9108C1.43647 28.9554 1.26235 29 1.08824 29Z" fill="#bdf2d5"/>
<path d="M18.4998 20.0769C18.3257 20.0769 18.1516 20.0323 18.021 19.9431L9.31508 15.4815C8.79273 15.2138 8.57508 14.5446 8.83626 13.9646C9.09743 13.3846 9.75037 13.2061 10.3163 13.4738L19.0221 17.9354C19.5445 18.2031 19.7621 18.8723 19.501 19.4523C19.2833 19.8538 18.8916 20.0769 18.4998 20.0769Z" fill="#bdf2d5"/>
<path d="M18.5003 20.0769C17.8909 20.0769 17.4121 19.5862 17.4121 18.9615C17.4121 18.56 17.6298 18.1585 18.0215 17.98L26.7274 13.5185C27.2498 13.2508 27.9027 13.4738 28.2074 14.0092C28.4686 14.5446 28.2509 15.2138 27.7286 15.5262L19.0227 19.9877C18.8486 20.0323 18.6745 20.0769 18.5003 20.0769Z" fill="#bdf2d5"/>
<path d="M18.5003 29C17.8909 29 17.4121 28.5092 17.4121 27.8846V18.9615C17.4121 18.3369 17.8909 17.8462 18.5003 17.8462C19.1098 17.8462 19.5886 18.3369 19.5886 18.9615V27.8846C19.5886 28.5092 19.1098 29 18.5003 29Z" fill="#bdf2d5"/>
</g>
<defs>
<clipPath id="clip0">
<rect width="37" height="29" fill="white"/>
</clipPath>
</defs>
</svg>
