<svg width="25" height="15" viewBox="0 0 25 15" fill="none" xmlns="http://www.w3.org/2000/svg">
<path d="M12.5013 14.8001C7.81381 14.8001 3.53965 12.3198 1.07167 8.15874C0.976109 8.00031 0.976109 7.79981 1.07167 7.64139C3.53965 3.48278 7.81381 1 12.5013 1C17.1888 1 21.4629 3.48278 23.9309 7.64139C24.0265 7.79981 24.0265 8.00031 23.9309 8.15874C21.4629 12.3173 17.1912 14.8001 12.5013 14.8001ZM2.04644 7.9013C4.35912 11.6094 8.24625 13.8125 12.5013 13.8125C16.7563 13.8125 20.6435 11.6094 22.9585 7.9013C20.6459 4.19321 16.7587 1.99014 12.5013 1.99014C8.24386 1.99014 4.35912 4.19321 2.04644 7.9013Z" fill="white" stroke="white" stroke-width="0.2"/>
<path d="M12.5022 11.9015C10.3735 11.9015 8.64136 10.1069 8.64136 7.90134C8.64136 5.69332 10.3735 3.89868 12.5022 3.89868C14.6333 3.89868 16.363 5.69332 16.363 7.90134C16.363 10.1094 14.6333 11.9015 12.5022 11.9015ZM12.5022 4.88883C10.8991 4.88883 9.59701 6.24037 9.59701 7.90134C9.59701 9.5623 10.9015 10.9114 12.5022 10.9114C14.1029 10.9114 15.4098 9.5623 15.4098 7.90134C15.4098 6.24037 14.1053 4.88883 12.5022 4.88883Z" fill="white" stroke="white" stroke-width="0.2"/>
<path d="M17.3235 13.8371C17.1945 13.8371 17.0655 13.7827 16.9723 13.6762C16.7932 13.4757 16.8075 13.1614 17.001 12.9757C18.3676 11.6737 19.1512 9.8221 19.1512 7.89874C19.1512 5.97291 18.3652 4.12135 16.9962 2.81931C16.8003 2.63365 16.7884 2.32176 16.9676 2.11878C17.1467 1.9158 17.4502 1.90342 17.6437 2.08908C19.211 3.57924 20.1093 5.69815 20.1093 7.89874C20.1093 10.0993 19.2133 12.2158 17.6485 13.7059C17.5553 13.795 17.4406 13.8371 17.3235 13.8371Z" fill="white" stroke="white" stroke-width="0.2"/>
<path d="M7.68595 13.8398C7.57127 13.8398 7.4542 13.7977 7.36341 13.7111C5.79614 12.2209 4.89783 10.1045 4.89783 7.90139C4.89783 5.7008 5.79614 3.58437 7.36103 2.0942C7.55455 1.90855 7.85797 1.92093 8.03715 2.12391C8.21634 2.32689 8.202 2.63878 8.00848 2.82443C6.63951 4.12647 5.85587 5.97804 5.85587 7.90139C5.85587 9.82722 6.6419 11.6788 8.01087 12.9808C8.20678 13.1665 8.21872 13.4784 8.03954 13.6814C7.94397 13.7853 7.81496 13.8398 7.68595 13.8398Z" fill="white" stroke="white" stroke-width="0.2"/>
</svg>
