<svg width="22" height="24" viewBox="0 0 22 24" fill="none" xmlns="http://www.w3.org/2000/svg">
<path d="M20.6706 5.76471C20.7882 5.82353 20.8824 5.90588 20.9412 6.03529C20.9412 6.03529 20.9412 6.04706 20.9529 6.04706C20.9529 6.05882 20.9647 6.07059 20.9647 6.08235C20.9882 6.16471 21 6.23529 21 6.30588V10.4118C21 10.7412 20.7412 11 20.4118 11C20.0824 11 19.8235 10.7412 19.8235 10.4118V7.24706L17.1412 8.58824C16.8471 8.72941 16.4941 8.61176 16.3529 8.32941C16.2118 8.03529 16.3294 7.68235 16.6118 7.54118L19.0941 6.30588L16.6118 5.07059C16.3176 4.92941 16.2 4.57647 16.3529 4.28235C16.4941 3.98824 16.8471 3.87059 17.1412 4.02353L20.6706 5.76471ZM21 18.0471C21 18.1294 20.9882 18.2235 20.9412 18.3059C20.9176 18.3647 20.8706 18.4235 20.8235 18.4706C20.7765 18.5176 20.7176 18.5529 20.6588 18.5882L17.1294 20.3529C16.8353 20.4941 16.4824 20.3765 16.3412 20.0941C16.2 19.8 16.3176 19.4471 16.6 19.3059L19.0824 18.0706L16.6 16.8353C16.3059 16.6941 16.1882 16.3412 16.3412 16.0471C16.4824 15.7529 16.8353 15.6353 17.1294 15.7882L19.8235 17.1059V13.9412C19.8235 13.6118 20.0824 13.3529 20.4118 13.3529C20.7412 13.3529 21 13.6118 21 13.9412V18.0471ZM2.90588 18.0588L5.38824 19.2941C5.68235 19.4353 5.8 19.7882 5.64706 20.0824C5.50588 20.3765 5.15294 20.4941 4.85882 20.3412L1.32941 18.5765C1.21176 18.5176 1.11765 18.4353 1.05882 18.3059C1.05882 18.3059 1.05882 18.2941 1.04706 18.2941C1.04706 18.2824 1.03529 18.2706 1.03529 18.2588C1.01176 18.1882 1 18.1176 1 18.0471V13.9412C1 13.6118 1.25882 13.3529 1.58824 13.3529C1.91765 13.3529 2.17647 13.6118 2.17647 13.9412V17.1059L4.85882 15.7647C5.15294 15.6235 5.50588 15.7412 5.64706 16.0235C5.78824 16.3176 5.67059 16.6706 5.38824 16.8118L2.90588 18.0588ZM2.17647 7.24706V10.4118C2.17647 10.7412 1.91765 11 1.58824 11C1.25882 11 1 10.7412 1 10.4118V6.30588C1 6.22353 1.01176 6.12941 1.05882 6.04706C1.08235 5.98824 1.12941 5.92941 1.17647 5.88235C1.22353 5.83529 1.28235 5.8 1.34118 5.76471L4.87059 4C5.16471 3.85882 5.51765 3.97647 5.65882 4.25882C5.8 4.55294 5.68235 4.90588 5.4 5.04706L2.90588 6.29412L5.38824 7.52941C5.68235 7.67059 5.8 8.02353 5.64706 8.31765C5.49412 8.61176 5.14118 8.72941 4.85882 8.58824L2.17647 7.24706ZM10.7294 1.07059C10.8118 1.02353 10.9059 1 11 1C11.0941 1 11.1882 1.02353 11.2706 1.07059L14.7882 2.83529C15.0824 2.97647 15.2 3.32941 15.0471 3.62353C14.9059 3.91765 14.5529 4.03529 14.2588 3.88235L11.5882 2.54118V5.70588C11.5882 6.03529 11.3294 6.29412 11 6.29412C10.6706 6.29412 10.4118 6.03529 10.4118 5.70588V2.54118L7.72941 3.88235C7.44706 4.02353 7.09412 3.90588 6.94118 3.61176C6.8 3.32941 6.91765 2.97647 7.21177 2.82353L10.7294 1.07059ZM11.2706 23.2824C11.1882 23.3294 11.0941 23.3529 11 23.3529C10.9059 23.3529 10.8118 23.3294 10.7294 23.2824L7.21177 21.5176C6.91765 21.3765 6.8 21.0235 6.95294 20.7294C7.09412 20.4353 7.44706 20.3176 7.74118 20.4706L10.4118 21.8118V18.6471C10.4118 18.3176 10.6706 18.0588 11 18.0588C11.3294 18.0588 11.5882 18.3176 11.5882 18.6471V21.8118L14.2706 20.4706C14.5647 20.3294 14.9176 20.4471 15.0588 20.7294C15.2 21.0235 15.0824 21.3765 14.8 21.5176L11.2706 23.2824ZM11.5882 11.3647V14.5294C11.5882 14.8588 11.3294 15.1176 11 15.1176C10.6706 15.1176 10.4118 14.8588 10.4118 14.5294V11.3647L7.21177 9.76471C6.91765 9.61176 6.8 9.25882 6.94118 8.97647C7.08235 8.68235 7.43529 8.56471 7.72941 8.71765L11 10.3412L14.2706 8.70588C14.5647 8.56471 14.9176 8.68235 15.0588 8.96471C15.2 9.25882 15.0824 9.61176 14.8 9.75294L11.5882 11.3647Z" fill="white" stroke="white" stroke-width="0.2"/>
</svg>
