<svg width="23" height="23" viewBox="0 0 23 23" fill="none" xmlns="http://www.w3.org/2000/svg">
<path d="M16.25 7C16.25 7.27264 16.398 7.52381 16.6364 7.65598C16.8749 7.78815 17.1663 7.7805 17.3975 7.636L21.3975 5.136C21.6168 4.99894 21.75 4.75859 21.75 4.5C21.75 4.24141 21.6168 4.00106 21.3975 3.864L17.3975 1.364C17.1663 1.2195 16.8749 1.21185 16.6364 1.34402C16.398 1.47619 16.25 1.72736 16.25 2L16.25 7Z" stroke="white" stroke-width="1.5" stroke-linejoin="round"/>
<path d="M6.75 15.6001C6.75 15.3275 6.60204 15.0763 6.36358 14.9441C6.12511 14.8119 5.8337 14.8196 5.6025 14.9641L1.6025 17.4641C1.38321 17.6012 1.25 17.8415 1.25 18.1001C1.25 18.3587 1.38321 18.599 1.6025 18.7361L5.6025 21.2361C5.8337 21.3806 6.12511 21.3882 6.36358 21.2561C6.60204 21.1239 6.75 20.8727 6.75 20.6001L6.75 15.6001Z" stroke="white" stroke-width="1.5" stroke-linejoin="round"/>
<path d="M16.1812 5H10.1748H5.95833H3C2.44772 5 2 5.44771 2 6V12.0478M6.8 18H16.9427H20C20.5523 18 21 17.5523 21 17V10.4227" stroke="white" stroke-width="1.5" stroke-linecap="round" stroke-linejoin="round"/>
</svg>
