<svg width="16" height="18" viewBox="0 0 16 18" fill="none" xmlns="http://www.w3.org/2000/svg">
<path d="M15.3143 2.7973H11.6571V1.21622C11.6571 0.535135 11.1543 0 10.5143 0H5.48571C4.84571 0 4.34286 0.535135 4.34286 1.21622V2.7973H0.685714C0.297143 2.7973 0 3.11351 0 3.52703C0 3.94054 0.297143 4.25676 0.685714 4.25676H1.66857L2.72 16.9054C2.78857 17.5135 3.26857 18 3.86286 18H12.1829C12.7543 18 13.2571 17.5135 13.3257 16.9054L14.3771 4.25676H15.3143C15.7029 4.25676 16 3.94054 16 3.52703C16 3.11351 15.7029 2.7973 15.3143 2.7973ZM5.71429 1.45946H10.2857V2.7973H5.71429V1.45946ZM11.9543 16.5405H4.04571L3.04 4.25676H12.9829L11.9543 16.5405Z" fill="white"/>
</svg>
