<svg width="19" height="24" viewBox="0 0 19 24" fill="none" xmlns="http://www.w3.org/2000/svg">
<path fill-rule="evenodd" clip-rule="evenodd" d="M6.45369 17.1857V19.2061H4.60537C4.10336 19.2061 3.60134 19.4082 3.23624 19.7673C2.87114 20.1265 2.66577 20.598 2.66577 21.1143C2.66577 21.6082 2.87114 22.102 3.23624 22.4612C3.60134 22.8204 4.08054 23.0224 4.60537 23.0224H14.4174C14.9195 23.0224 15.4215 22.8204 15.7866 22.4612C16.1517 22.102 16.357 21.6306 16.357 21.1143C16.357 20.6204 16.1517 20.1265 15.7866 19.7673C15.4215 19.4082 14.9423 19.2061 14.4174 19.2061H12.5691V17.1857C15.7638 15.9735 18.0228 12.9429 18.0228 9.37347C18 4.74898 14.1893 1 9.51141 1C4.81074 1 1 4.74898 1 9.37347C1 12.9204 3.25906 15.9735 6.45369 17.1857ZM15.4443 21.0918C15.4443 20.8224 15.3302 20.5531 15.1477 20.3735C14.9651 20.1939 14.6913 20.0816 14.4174 20.0816H4.60537C4.33154 20.0816 4.05772 20.1939 3.87517 20.3735C3.6698 20.5531 3.57852 20.8224 3.57852 21.0918C3.57852 21.3612 3.69262 21.6306 3.87517 21.8102C4.05772 21.9898 4.33154 22.102 4.60537 22.102H14.4174C14.6913 22.102 14.9651 21.9898 15.1477 21.8102C15.3302 21.6306 15.4443 21.3837 15.4443 21.0918ZM7.34362 17.4551V19.2061H11.6564V17.4551C10.9718 17.6347 10.2416 17.7245 9.48859 17.7245C8.75839 17.7245 8.02819 17.6347 7.34362 17.4551ZM9.51141 1.87551C13.7101 1.87551 17.1329 5.22041 17.1329 9.35102C17.1329 13.4816 13.7101 16.849 9.51141 16.849C5.31275 16.849 1.88993 13.5041 1.88993 9.37347C1.88993 5.24286 5.31275 1.87551 9.51141 1.87551ZM9.51141 5.24286C7.20671 5.24286 5.33557 7.08367 5.33557 9.35102C5.33557 11.6184 7.20671 13.4592 9.51141 13.4592C11.8161 13.4592 13.6872 11.6184 13.6872 9.35102C13.6872 7.08367 11.8161 5.24286 9.51141 5.24286ZM9.51141 6.14081C11.3369 6.14081 12.7973 7.6 12.7973 9.37347C12.7973 11.1469 11.3141 12.6061 9.51141 12.6061C7.70872 12.6061 6.2255 11.1469 6.2255 9.37347C6.2255 7.57755 7.68591 6.14081 9.51141 6.14081ZM9.51141 7.5102C8.46175 7.5102 7.61745 8.34081 7.61745 9.37347C7.61745 10.4061 8.46175 11.2367 9.51141 11.2367C10.5611 11.2367 11.4054 10.4061 11.4054 9.37347C11.4054 8.34081 10.5383 7.5102 9.51141 7.5102ZM9.51141 8.38571C10.0591 8.38571 10.4926 8.81224 10.4926 9.35102C10.4926 9.88979 10.0591 10.3163 9.51141 10.3163C8.96376 10.3163 8.5302 9.88979 8.5302 9.35102C8.50738 8.83469 8.96376 8.38571 9.51141 8.38571ZM9.51141 3.13265C9.76242 3.13265 9.96779 3.33469 9.96779 3.58163C9.96779 3.82857 9.76242 4.03061 9.51141 4.03061C9.2604 4.03061 9.05503 3.82857 9.05503 3.58163C9.05503 3.33469 9.2604 3.13265 9.51141 3.13265Z" fill="white" stroke="white" stroke-width="0.4"/>
</svg>
