<svg width="23" height="16" viewBox="0 0 23 16" fill="none" xmlns="http://www.w3.org/2000/svg">
<circle cx="11.5" cy="8" r="1.75" stroke="white" stroke-width="1.5"/>
<path d="M6.5 4C5.56332 5.08467 5 6.47898 5 8C5 9.52102 5.56332 10.9153 6.5 12M16.5 4C17.4367 5.08467 18 6.47898 18 8C18 9.52102 17.4367 10.9153 16.5 12" stroke="white" stroke-width="1.5" stroke-linecap="round"/>
<path d="M3.42308 1C1.90998 2.84235 1 5.21063 1 7.79412C1 10.3776 1.90998 12.7459 3.42308 14.5882M19.5769 1C21.09 2.84235 22 5.21063 22 7.79412C22 10.3776 21.09 12.7459 19.5769 14.5882" stroke="white" stroke-width="1.5" stroke-linecap="round"/>
</svg>
