<?xml version="1.0" encoding="utf-8"?>
<!-- Generator: Adobe Illustrator 25.2.3, SVG Export Plug-In . SVG Version: 6.00 Build 0)  -->
<svg version="1.1" id="Warstwa_1" xmlns="http://www.w3.org/2000/svg" xmlns:xlink="http://www.w3.org/1999/xlink" x="0px" y="0px"
	 viewBox="0 0 23 23" style="enable-background:new 0 0 23 23;" xml:space="preserve">
<style type="text/css">
	.st0{fill:none;stroke:#FFFFFF;stroke-width:1.5;stroke-linecap:round;}
	.st1{fill:#FFFFFF;stroke:#FFFFFF;stroke-width:0.55;stroke-miterlimit:10;}
</style>
<path class="st0" d="M22.2,11.5c0,5.9-4.8,10.8-10.8,10.8c-5.9,0-10.8-4.8-10.8-10.8c0-5.9,4.8-10.8,10.8-10.8
	C17.4,0.8,22.2,5.6,22.2,11.5z"/>
<path class="st1" d="M12.3,7.2c0-0.4-0.3-0.8-0.8-0.8s-0.8,0.3-0.8,0.8v3.6H7.2c-0.4,0-0.8,0.3-0.8,0.8s0.3,0.8,0.8,0.8h3.6v3.6
	c0,0.4,0.3,0.8,0.8,0.8s0.8-0.3,0.8-0.8v-3.6h3.6c0.4,0,0.7-0.3,0.7-0.8s-0.3-0.8-0.7-0.8h-3.6V7.2z"/>
</svg>
