<svg width="27" height="23" viewBox="0 0 27 23" fill="none" xmlns="http://www.w3.org/2000/svg">
<path d="M10.45 14.8799C10.45 15.1485 10.5935 15.3965 10.8264 15.5303C11.0593 15.664 11.3459 15.6631 11.5779 15.5278L17.0978 12.3078C17.3283 12.1734 17.4699 11.9267 17.4699 11.6599C17.4699 11.3932 17.3283 11.1465 17.0978 11.0121L11.5779 7.79211C11.3459 7.65679 11.0593 7.65583 10.8264 7.78958C10.5935 7.92334 10.45 8.17139 10.45 8.43994L10.45 14.8799Z" stroke="white" stroke-width="1.5" stroke-linejoin="round"/>
<path d="M11.7308 2.92004H3.88464C3.33236 2.92004 2.88464 3.36776 2.88464 3.92004V7.34312M9.07694 20.6123H3.88464C3.33236 20.6123 2.88464 20.1646 2.88464 19.6123V13.9777M15.0481 20.6123H23.1154C23.6677 20.6123 24.1154 20.1646 24.1154 19.6123V16.6316M17.7019 2.92004H20.024H23.1154C23.6677 2.92004 24.1154 3.36776 24.1154 3.92004V9.99696" stroke="white" stroke-width="1.5" stroke-linecap="round" stroke-linejoin="round"/>
<circle cx="13.2806" cy="2.88461" r="1.63461" stroke="white" stroke-width="1.5"/>
<circle cx="24.1154" cy="12.2085" r="1.63461" stroke="white" stroke-width="1.5"/>
<circle cx="13.4738" cy="20.5769" r="1.63461" stroke="white" stroke-width="1.5"/>
<circle cx="2.88461" cy="12.0846" r="1.63461" stroke="white" stroke-width="1.5"/>
</svg>
