<svg width="23" height="22" viewBox="0 0 23 22" fill="none" xmlns="http://www.w3.org/2000/svg">
<path fill-rule="evenodd" clip-rule="evenodd" d="M8.20832 3.01989L8.76189 1.07819C8.80764 0.920751 8.94031 0.802675 9.10501 0.767689C10.6834 0.430953 12.3166 0.430953 13.895 0.767689C14.0597 0.802675 14.1924 0.920751 14.2381 1.07819L14.7917 3.01989C15.6198 3.33038 16.3975 3.75896 17.0929 4.28812L19.1287 3.77645C19.2934 3.73709 19.4673 3.7852 19.5817 3.90327C20.6751 5.04031 21.494 6.396 21.9789 7.86977C22.0293 8.02283 21.9881 8.19338 21.8691 8.30709L20.3869 9.73712C20.5195 10.5768 20.5195 11.4339 20.3869 12.278L21.8691 13.708C21.9881 13.8217 22.0293 13.9922 21.9789 14.1453C21.494 15.6191 20.6797 16.9748 19.5817 18.1118C19.4673 18.2299 19.2934 18.278 19.1287 18.2386L17.0929 17.727C16.3975 18.2561 15.6198 18.6847 14.7917 18.9952L14.2381 20.9369C14.1924 21.0943 14.0643 21.2124 13.895 21.2474C12.3166 21.5841 10.6834 21.5841 9.10501 21.2474C8.94031 21.2124 8.80764 21.0943 8.76189 20.9369L8.20832 18.9952C7.38025 18.6847 6.60251 18.2561 5.90711 17.727L3.87125 18.2386C3.70655 18.278 3.53271 18.2299 3.41833 18.1118C2.32492 16.9748 1.506 15.6191 1.02105 14.1453C0.970729 13.9922 1.0119 13.8217 1.13085 13.708L2.61314 12.278C2.48047 11.4383 2.48047 10.5812 2.61314 9.73712L1.13085 8.30709C1.0119 8.19338 0.970729 8.02283 1.02105 7.86977C1.506 6.396 2.32034 5.04031 3.41833 3.90327C3.53271 3.7852 3.70655 3.73709 3.87125 3.77645L5.90711 4.28812C6.60251 3.75896 7.37567 3.33038 8.20832 3.01989ZM13.4238 1.56798C12.1519 1.33183 10.8389 1.33183 9.56708 1.56798L9.02723 3.46595C8.98606 3.60152 8.88083 3.71523 8.74359 3.76333C7.85604 4.06946 7.03255 4.52427 6.30971 5.1059C6.19533 5.19774 6.04436 5.22835 5.89796 5.19337L3.90785 4.69482C3.05691 5.63069 2.40269 6.71524 1.98179 7.88726L3.43206 9.28668C3.53728 9.38727 3.58303 9.53158 3.55558 9.67153C3.39088 10.5593 3.39088 11.4689 3.55558 12.3567C3.58303 12.4966 3.53271 12.6409 3.43206 12.7415L1.98179 14.1409C2.40269 15.313 3.05691 16.3975 3.90785 17.3334L5.89796 16.8348C6.03978 16.7998 6.19533 16.8305 6.30971 16.9223C7.03255 17.5039 7.85604 17.9587 8.74359 18.2649C8.88541 18.313 8.99063 18.4223 9.02723 18.5622L9.56708 20.4602C10.8389 20.6964 12.1474 20.6964 13.4238 20.4602L13.9682 18.5622C14.0094 18.4267 14.1146 18.313 14.2518 18.2649C15.1394 17.9587 15.9629 17.5039 16.6857 16.9223C16.8001 16.8305 16.9511 16.7998 17.0975 16.8348L19.0876 17.3334C19.9385 16.3975 20.5927 15.313 21.0136 14.1409L19.5634 12.7415C19.4581 12.6409 19.4124 12.4966 19.4398 12.3567C19.6045 11.4689 19.6045 10.5593 19.4398 9.67153C19.4124 9.53158 19.4627 9.38727 19.5634 9.28668L21.0136 7.88726C20.5927 6.71524 19.9385 5.63069 19.0876 4.69482L17.0975 5.19337C16.9556 5.22835 16.8001 5.19774 16.6857 5.1059C15.9629 4.52427 15.1394 4.06946 14.2518 3.76333C14.11 3.71523 14.0048 3.6059 13.9682 3.46595L13.4238 1.56798Z" fill="white" stroke="white" stroke-width="0.5"/>
<path fill-rule="evenodd" clip-rule="evenodd" d="M11.5 6.51074C9.015 6.51074 7 8.52428 7 11.0075C7 13.4907 9.015 15.5042 11.5 15.5042C13.985 15.5042 16 13.4907 16 11.0075C16 8.52428 13.985 6.51074 11.5 6.51074ZM11.5 7.51002C13.43 7.51002 15 9.07888 15 11.0075C15 12.9361 13.43 14.5049 11.5 14.5049C9.57 14.5049 8 12.9361 8 11.0075C8 9.07888 9.57 7.51002 11.5 7.51002Z" fill="white" stroke="white" stroke-width="0.5"/>
</svg>
