<svg width="25" height="19" viewBox="0 0 25 19" fill="none" xmlns="http://www.w3.org/2000/svg">
<path d="M15.58 7.15079C15.58 7.30032 15.57 7.44985 15.545 7.5944C15.335 9.07478 14.06 10.2212 12.51 10.2262H12.505V10.2212C12.505 10.2212 12.495 10.2212 12.5 10.2262H12.495C10.945 10.2212 9.66495 9.07478 9.45495 7.58942C9.42995 7.44985 9.41995 7.30032 9.41995 7.15079C9.41995 6.64238 9.54495 6.15889 9.76495 5.74518C9.77495 5.72524 9.78995 5.71029 9.79495 5.69035C9.83995 5.63054 9.87495 5.56076 9.90995 5.48599C9.90995 5.48599 9.91495 5.48599 9.91495 5.48101C10.465 4.63864 11.415 4.08038 12.5 4.08038C13.605 4.08038 14.58 4.66356 15.115 5.53584C15.16 5.60562 15.195 5.67041 15.23 5.73023C15.46 6.1539 15.58 6.63739 15.58 7.15079Z" stroke="white" stroke-width="1.5" stroke-miterlimit="10" stroke-linecap="round" stroke-linejoin="round"/>
<path d="M12.505 10.2162V10.2212H12.5C12.4901 10.2162 12.505 10.2162 12.505 10.2162Z" stroke="white" stroke-width="1.5" stroke-miterlimit="10" stroke-linecap="round" stroke-linejoin="round"/>
<path d="M18.665 16.372V17.6031H6.33002V16.372C6.33002 15.724 6.43002 15.1109 6.61502 14.5277C7.40002 12.0355 9.73502 10.2212 12.495 10.2212H12.515C14.21 10.2262 15.745 10.909 16.865 12.0206C17.555 12.7084 18.085 13.5657 18.39 14.5227C18.565 15.1109 18.665 15.724 18.665 16.372Z" stroke="white" stroke-width="1.5" stroke-miterlimit="10" stroke-linecap="round" stroke-linejoin="round"/>
<path d="M12.49 10.2212C9.735 10.2212 7.395 12.0355 6.61 14.5277H1V13.2966C1 9.90217 3.755 7.14578 7.17 7.14578C7.98 7.14578 8.75 7.3003 9.45 7.58441" stroke="white" stroke-width="1.5" stroke-miterlimit="10" stroke-linecap="round" stroke-linejoin="round"/>
<path d="M12.505 10.2162V10.2212H12.5C12.4901 10.2162 12.505 10.2162 12.505 10.2162Z" stroke="white" stroke-width="1.5" stroke-miterlimit="10" stroke-linecap="round" stroke-linejoin="round"/>
<path d="M10.25 4.07539C10.25 4.57882 10.125 5.05732 9.90999 5.47601C9.90999 5.481 9.90499 5.481 9.90499 5.481C9.87499 5.55576 9.83499 5.62056 9.78999 5.68536C9.78499 5.70529 9.76999 5.72025 9.75999 5.74019C9.20999 6.58754 8.25499 7.14579 7.16999 7.14579C5.45999 7.14579 4.08499 5.77009 4.08499 4.0704C4.08499 2.37072 5.45999 1 7.16999 1C8.86999 1 10.25 2.3757 10.25 4.07539Z" stroke="white" stroke-width="1.5" stroke-miterlimit="10" stroke-linecap="round" stroke-linejoin="round"/>
<path d="M12.495 10.2215C12.4899 10.2162 12.5002 10.2162 12.5002 10.2162V10.2215H12.495Z" stroke="white" stroke-width="1.5" stroke-miterlimit="10" stroke-linecap="round" stroke-linejoin="round"/>
<path d="M15.545 7.5894C16.255 7.3003 17.025 7.14578 17.835 7.14578C19.535 7.14578 21.08 7.83363 22.195 8.94516C23.31 10.0567 24 11.5969 24 13.2916V14.5227H18.38C18.08 13.5657 17.545 12.7084 16.855 12.0205C15.74 10.909 14.205 10.2262 12.505 10.2212" stroke="white" stroke-width="1.5" stroke-miterlimit="10" stroke-linecap="round" stroke-linejoin="round"/>
<path d="M20.9149 4.07536C20.9149 5.77007 19.5349 7.15075 17.8299 7.15075C16.7399 7.15075 15.7749 6.58751 15.2249 5.73019C15.1899 5.67038 15.1499 5.6006 15.1099 5.5358C14.8799 5.10714 14.7449 4.6087 14.7449 4.08035C14.7449 2.38564 16.1249 1.00496 17.8299 1.00496C19.5349 0.999973 20.9149 2.37567 20.9149 4.07536Z" stroke="white" stroke-width="1.5" stroke-miterlimit="10" stroke-linecap="round" stroke-linejoin="round"/>
</svg>
