<svg width="23" height="23" viewBox="0 0 23 23" fill="none" xmlns="http://www.w3.org/2000/svg">
<g clip-path="url(#clip0_366:5354)">
<path d="M4.22422 19.6343C4.46633 19.3922 4.46633 19.017 4.22422 18.7749C0.205276 14.7559 0.205276 8.24329 4.22422 4.22434C8.24317 0.205398 14.7558 0.205398 18.7747 4.22434C22.7937 8.24329 22.7937 14.7559 18.7747 18.7749C18.5326 19.0049 18.5326 19.3922 18.7626 19.6343C18.9926 19.8764 19.38 19.8764 19.6221 19.6465L19.6342 19.6343C24.1253 15.1433 24.1253 7.85592 19.6342 3.36487C15.1432 -1.12618 7.8558 -1.12618 3.36475 3.36487C-1.1263 7.85592 -1.1263 15.1312 3.36475 19.6222C3.60685 19.8643 3.98212 19.8643 4.22422 19.6343Z" fill="white"/>
<path d="M16.2089 17.0685C16.451 17.3106 16.8263 17.3106 17.0684 17.0685C20.1431 13.9937 20.1431 9.01848 17.0684 5.94375C13.9936 2.86901 9.01836 2.86901 5.94363 5.94375C2.86889 9.01848 2.86889 13.9937 5.94363 17.0685C6.18573 17.2985 6.5731 17.2985 6.8031 17.0564C7.0331 16.8264 7.0331 16.4511 6.8031 16.2211C4.20047 13.6185 4.20047 9.40585 6.8031 6.80322C9.40573 4.20059 13.6184 4.20059 16.221 6.80322C18.8236 9.40585 18.8236 13.6185 16.221 16.2211C15.9668 16.439 15.9668 16.8264 16.2089 17.0685Z" fill="white"/>
<path d="M13.6426 14.4901C13.8847 14.7322 14.2599 14.7322 14.502 14.4901C16.1605 12.8317 16.1605 10.1564 14.502 8.49798C12.8315 6.90009 10.1926 6.90009 8.50993 8.49798C6.85151 10.1564 6.85151 12.8317 8.50993 14.4901C8.75203 14.7201 9.1394 14.7201 9.3694 14.478C9.5994 14.248 9.5994 13.8727 9.3694 13.6427C8.18309 12.4564 8.18309 10.5438 9.3694 9.36956C10.5678 8.23167 12.4562 8.23167 13.6547 9.36956C14.841 10.5559 14.841 12.4685 13.6547 13.6427C13.4005 13.8727 13.4005 14.2601 13.6426 14.4901Z" fill="white"/>
<path d="M3.68011 22.6369C3.77695 22.8547 3.99484 23 4.23695 23H18.7633C19.1022 23 19.3685 22.7337 19.3685 22.3947C19.3685 22.2374 19.308 22.0921 19.2112 21.9832L11.948 14.1147C11.7059 13.8726 11.3064 13.8605 11.0643 14.1026C11.0643 14.1026 11.0643 14.1026 11.0522 14.1147L3.78905 21.9832C3.63169 22.1647 3.58326 22.419 3.68011 22.6369ZM11.5001 15.4221L17.3833 21.7895H5.61695L11.5001 15.4221Z" fill="white"/>
</g>
<defs>
<clipPath id="clip0_366:5354">
<rect width="23" height="23" fill="white"/>
</clipPath>
</defs>
</svg>
